<svg xmlns="http://www.w3.org/2000/svg" viewBox="0 0 14.1 12.58"><defs><style>.cls-1{fill:#1d1d1b;}</style></defs><g id="Calque_2" data-name="Calque 2"><g id="Calque_1-2" data-name="Calque 1"><path class="cls-1" d="M13.73,12.1a1.1,1.1,0,0,1-.83.38,1.12,1.12,0,0,1-.73-.27l-5-4.41L1.82,12.32a1.1,1.1,0,0,1-1.56-.13A1.13,1.13,0,0,1,0,11.48a1.07,1.07,0,0,1,.39-.84L5.48,6.33l-5-4.4A1.1,1.1,0,0,1,1.19,0a1.08,1.08,0,0,1,.72.27L7.18,4.89,12.28.57A1.12,1.12,0,0,1,13.84.7a1.13,1.13,0,0,1,.26.71,1.1,1.1,0,0,1-.39.85L8.86,6.36l4.77,4.18A1.11,1.11,0,0,1,13.73,12.1Z"/></g></g></svg>